<?xml version="1.0" encoding="UTF-8" standalone="no"?>
<!-- Created with Inkscape (http://www.inkscape.org/) -->

<svg
   width="210mm"
   height="297mm"
   viewBox="0 0 210 297"
   version="1.1"
   id="svg1"
   inkscape:version="1.4.4 (dcaf3e7, 2026-05-05)"
   sodipodi:docname="earth.svg"
   xmlns:inkscape="http://www.inkscape.org/namespaces/inkscape"
   xmlns:sodipodi="http://sodipodi.sourceforge.net/DTD/sodipodi-0.dtd"
   xmlns:xlink="http://www.w3.org/1999/xlink"
   xmlns="http://www.w3.org/2000/svg"
   xmlns:svg="http://www.w3.org/2000/svg">
  <sodipodi:namedview
     id="namedview1"
     pagecolor="#ffffff"
     bordercolor="#000000"
     borderopacity="0.25"
     inkscape:showpageshadow="2"
     inkscape:pageopacity="0.0"
     inkscape:pagecheckerboard="0"
     inkscape:deskcolor="#d1d1d1"
     inkscape:document-units="mm"
     inkscape:zoom="0.35945918"
     inkscape:cx="-236.46635"
     inkscape:cy="780.33896"
     inkscape:window-width="1920"
     inkscape:window-height="1009"
     inkscape:window-x="-8"
     inkscape:window-y="-8"
     inkscape:window-maximized="1"
     inkscape:current-layer="layer1" />
  <defs
     id="defs1">
    <inkscape:path-effect
       effect="fillet_chamfer"
       id="path-effect8"
       is_visible="true"
       lpeversion="1"
       nodesatellites_param="F,0,0,1,0,0,0,1 @ F,0,0,1,0,0,0,1 @ F,0,0,1,0,0,0,1 @ F,0,0,1,0,0,0,1 @ F,0,0,1,0,0,0,1 @ F,0,0,1,0,0,0,1 @ F,0,0,1,0,0,0,1 @ F,0,0,1,0,0,0,1 @ F,0,0,1,0,0,0,1 @ F,0,0,1,0,0,0,1 @ F,0,0,1,0,0,0,1 @ F,0,0,1,0,0,0,1 @ F,0,0,1,0,0,0,1 @ F,0,0,1,0,8.0062353,0,1 @ F,0,1,1,0,8.0062353,0,1 @ F,0,0,1,0,8.1791162,0,1 @ F,0,0,1,0,6.7472855,0,1"
       radius="0"
       unit="px"
       method="auto"
       mode="F"
       chamfer_steps="1"
       flexible="false"
       use_knot_distance="true"
       apply_no_radius="true"
       apply_with_radius="true"
       only_selected="false"
       hide_knots="false" />
    <inkscape:path-effect
       effect="fillet_chamfer"
       id="path-effect7"
       is_visible="true"
       lpeversion="1"
       nodesatellites_param="F,0,0,1,0,0,0,1 @ F,0,0,1,0,7.2189512,0,1 @ F,0,0,1,0,0,0,1 @ F,0,0,1,0,0,0,1 @ F,0,0,1,0,0,0,1 @ F,0,0,1,0,0,0,1 @ F,0,0,1,0,0,0,1 @ F,0,0,1,0,0,0,1 @ F,0,0,1,0,0,0,1 @ F,0,0,1,0,0,0,1 @ F,0,0,1,0,0,0,1 @ F,0,0,1,0,0,0,1 @ F,0,0,1,0,0,0,1 @ F,0,0,1,0,0,0,1 @ F,0,0,1,0,0,0,1 @ F,0,0,1,0,0,0,1 @ F,0,0,1,0,0,0,1 @ F,0,0,1,0,0,0,1 @ F,0,0,1,0,0,0,1 @ F,0,0,1,0,0,0,1 @ F,0,0,1,0,0,0,1 @ F,0,0,1,0,19.793717,0,1 @ F,0,0,1,0,0,0,1"
       radius="0"
       unit="px"
       method="auto"
       mode="F"
       chamfer_steps="1"
       flexible="false"
       use_knot_distance="true"
       apply_no_radius="true"
       apply_with_radius="true"
       only_selected="false"
       hide_knots="false" />
    <inkscape:path-effect
       effect="fillet_chamfer"
       id="path-effect6"
       is_visible="true"
       lpeversion="1"
       nodesatellites_param="F,0,0,1,0,0,0,1 @ F,0,0,1,0,0,0,1 @ F,0,0,1,0,0,0,1 @ F,0,0,1,0,0,0,1 @ F,0,0,1,0,0,0,1 @ F,0,0,1,0,0,0,1 @ F,0,0,1,0,0,0,1 @ F,0,0,1,0,0,0,1 @ F,0,0,1,0,0,0,1 @ F,0,0,1,0,0,0,1 @ F,0,0,1,0,0,0,1 @ F,0,0,1,0,0,0,1 @ F,0,0,1,0,0,0,1 @ F,0,0,1,0,0,0,1 @ F,0,0,1,0,0,0,1 @ F,0,0,1,0,0,0,1 @ F,0,0,1,0,0,0,1 @ F,0,0,1,0,0,0,1 @ F,0,0,1,0,0,0,1 @ F,0,0,1,0,0,0,1 @ F,0,0,1,0,0,0,1 @ F,0,0,1,0,0,0,1 @ F,0,0,1,0,0,0,1"
       radius="0"
       unit="px"
       method="auto"
       mode="F"
       chamfer_steps="1"
       flexible="false"
       use_knot_distance="true"
       apply_no_radius="true"
       apply_with_radius="true"
       only_selected="false"
       hide_knots="false" />
    <linearGradient
       id="linearGradient1"
       inkscape:collect="always">
      <stop
         style="stop-color:#358fff;stop-opacity:1;"
         offset="0"
         id="stop1" />
      <stop
         style="stop-color:#164cb0;stop-opacity:1;"
         offset="1"
         id="stop2" />
    </linearGradient>
    <radialGradient
       inkscape:collect="always"
       xlink:href="#linearGradient1"
       id="radialGradient2"
       cx="104.70446"
       cy="145.55574"
       fx="104.70446"
       fy="145.55574"
       r="100.83288"
       gradientUnits="userSpaceOnUse" />
  </defs>
  <g
     inkscape:label="Layer 1"
     inkscape:groupmode="layer"
     id="layer1">
    <circle
       style="opacity:0.85;fill:url(#radialGradient2);stroke:#23abff;stroke-width:1.82562;stroke-linecap:round;stroke-linejoin:round;stroke-miterlimit:5.4;stroke-opacity:0.85097998"
       id="path1"
       cx="104.70446"
       cy="145.55574"
       r="99.920067" />
    <path
       style="opacity:0.85;fill:#356d48;fill-opacity:1;stroke:#ffffff;stroke-width:1.7932;stroke-linecap:round;stroke-linejoin:round;stroke-miterlimit:5.4;stroke-opacity:1"
       d="m 55.412518,60.524679 c 3.67504,-2.288986 25.951748,7.124178 25.951748,7.124178 l 15.377635,1.096227 h 6.079539 l 4.29142,5.115733 -5.00666,10.231467 c 0,0 -13.589546,5.115733 -12.159067,5.115733 1.430476,0 -10.728583,10.962283 -10.728583,10.962283 l -2.145716,8.03901 v 8.40443 h -5.364292 l -0.35762,-8.76984 -6.794768,-6.21196 -7.510008,2.55787 -3.933813,9.86606 0.715238,5.48113 5.006671,7.3082 9.298107,1.46164 11.086201,-4.75033 12.51668,6.21197 3.218575,7.30818 3.218573,11.69311 -3.576193,13.52015 -5.006671,11.6931 -9.655725,10.9623 -3.933815,13.15474 -0.35762,8.40441 -2.860953,3.28869 c 0,0 -3.933815,-4.38492 -2.503336,-4.38492 1.430477,0 -2.145716,-12.05851 -2.145716,-12.05851 l 2.860953,-14.25097 -3.218573,-12.42392 -15.735255,-10.23147 -6.437149,-13.88556 3.576193,-10.23146 -2.145716,-12.42394 -2.860956,-9.86605 -3.576193,2.55787 1.072857,-5.11574 -0.715237,-9.135235 -3.576195,-14.616381 c 0,0 -2.096292,-7.327436 -0.452304,-9.107574 4.379283,-4.741962 12.62686,-10.44419 18.487744,-14.094621 z"
       id="path2"
       sodipodi:nodetypes="scccccscccccccccccccccccccccsccccccccccccss" />
    <path
       style="opacity:0.85;fill:#356d48;fill-opacity:1;stroke:#ffffff;stroke-width:1.82562;stroke-linecap:round;stroke-linejoin:round;stroke-miterlimit:5.4;stroke-opacity:1"
       d="m 193.95167,99.368028 c 0,0 -7.86516,-15.959483 -16.14922,-22.037949 -3.13412,-2.299677 -9.87473,-1.816174 -13.77998,-1.016076 -4.51118,0.924238 -6.87377,1.7083 -6.87377,1.7083 l -6.62454,8.832715 -2.20818,9.936803 c 0,0 7.72863,6.992569 4.41636,8.464679 -3.31227,1.47212 6.25651,-2.94423 6.25651,-2.94423 l 0.73606,-4.784391 3.31226,0.36803 4.04833,-2.208178 4.04833,3.312268 -3.31227,2.208181 -13.6171,6.62453 -4.41636,8.46469 -1.84015,12.14498 4.69238,8.62569 9.9368,8.09665 10.30484,-1.84014 15.08922,2.20817 6.62453,5.52045 4.41636,11.40892 c 1.81346,4.31952 6.70346,2.09545 5.90378,-21.92092 -0.36371,-10.92312 -5.0739,-27.84428 -9.47288,-37.85191 l -1.42625,-3.244702"
       id="path3"
       sodipodi:nodetypes="cscccsccccccccccccccccc"
       inkscape:path-effect="#path-effect7"
       inkscape:original-d="m 193.95167,99.368028 c 0,0 -12.69699,-25.763921 -22.81784,-24.289963 -9.11211,1.327051 -13.98513,2.944238 -13.98513,2.944238 l -6.62454,8.832715 -2.20818,9.936803 c 0,0 7.72863,6.992569 4.41636,8.464679 -3.31227,1.47212 6.25651,-2.94423 6.25651,-2.94423 l 0.73606,-4.784391 3.31226,0.36803 4.04833,-2.208178 4.04833,3.312268 -3.31227,2.208181 -13.6171,6.62453 -4.41636,8.46469 -1.84015,12.14498 4.69238,8.62569 9.9368,8.09665 10.30484,-1.84014 15.08922,2.20817 6.62453,5.52045 4.41636,11.40892 c 2.22214,5.29296 9.06369,0.7607 4.39595,-41.65242 l -9.3913,-21.365112"
       transform="translate(-2.2081784,1.472119)" />
    <path
       style="opacity:0.85;fill:#356d48;fill-opacity:1;stroke:#ffffff;stroke-width:1.82562;stroke-linecap:round;stroke-linejoin:round;stroke-miterlimit:5.4;stroke-opacity:1"
       d="m 149.7881,82.070632 0.36803,-8.096655 -6.2565,-2.208178 c 0,0 2.20817,7.360595 -0.73606,8.832713 -2.94424,1.47212 2.5762,6.256506 2.5762,6.256506 z"
       id="path4" />
    <path
       style="opacity:0.85;fill:#356d48;fill-opacity:1;stroke:#ffffff;stroke-width:1.82562;stroke-linecap:round;stroke-linejoin:round;stroke-miterlimit:5.4;stroke-opacity:1"
       d="m 130.28253,64.773232 6.99256,2.576209 0.73606,7.360594 -2.57621,4.784389 c 0,0 1.10409,9.936803 -0.36803,9.936803 -1.47212,0 -1.84015,0 -6.99256,0.736057 -5.15242,0.73606 -6.62454,-8.096652 -6.62454,-8.096652 z"
       id="path5" />
    <path
       style="opacity:0.85;fill:#356d48;fill-opacity:1;stroke:#ffffff;stroke-width:1.82562;stroke-linecap:round;stroke-linejoin:round;stroke-miterlimit:5.4;stroke-opacity:1"
       d="m 58.516728,232.59479 9.568773,-3.31227 17.665427,0.73606 9.936803,-5.52044 9.568769,5.52044 8.46469,-3.68029 5.15241,-4.41636 11.77696,2.57621 9.56877,-3.31227 8.09665,4.04833 10.67286,2.20818 -13.6171,7.72862 c -13.93382,6.05503 -25.31137,7.90637 -41.84759,8.63945 -14.880191,0.41881 -30.006064,-4.17006 -45.007422,-11.21566 z"
       id="path6"
       sodipodi:nodetypes="cccccccccccccc" />
    <path
       style="opacity:0.85;fill:#356d48;fill-opacity:1;stroke:#ffffff;stroke-width:1.82562;stroke-linecap:round;stroke-linejoin:round;stroke-miterlimit:5.4;stroke-opacity:1"
       d="m 71.857806,51.47816 6.532528,5.382435 10.488847,-1.288105 9.752788,-1.656133 8.096651,4.232341 7.72863,-0.920075 c 0,0 4.23234,-4.600371 4.9684,-4.048326 0.73606,0.552045 4.04833,3.864311 4.78439,4.416356 0.73606,0.552045 7.72862,0.552045 7.72862,0.552045 l 2.57621,-2.208178 8.09665,3.864311 10.48885,3.312268 10.25883,0.552046 c -4.68104,-3.6619 -10.4799,-6.894616 -15.20094,-9.271793 -3.94866,-1.988262 -10.71561,-4.276135 -15.01291,-5.31771 l -3.9606,-0.959967 a 114.32247,114.32247 9.6185576 0 0 -15.74879,-2.668956 76.055213,76.055213 179.47007 0 0 -15.228599,0.140855 l -4.438043,0.457027 a 67.391686,67.391686 168.40301 0 0 -13.15333,2.699271 z"
       id="path7"
       inkscape:path-effect="#path-effect8"
       inkscape:original-d="m 71.857806,51.47816 6.532528,5.382435 10.488847,-1.288105 9.752788,-1.656133 8.096651,4.232341 7.72863,-0.920075 c 0,0 4.23234,-4.600371 4.9684,-4.048326 0.73606,0.552045 4.04833,3.864311 4.78439,4.416356 0.73606,0.552045 7.72862,0.552045 7.72862,0.552045 l 2.57621,-2.208178 8.09665,3.864311 10.48885,3.312268 10.25883,0.552046 C 155.6387,57.629526 144.87747,52.757389 140.92629,50.96558 l -19.52248,-4.731843 -15.06036,-1.480014 -19.285923,1.986055 z"
       sodipodi:nodetypes="ccccccsscccccccccc"
       transform="translate(-1.8401487,2.2081784)" />
  </g>
</svg>
