<?xml version="1.0" encoding="UTF-8" standalone="no"?>
<svg
   width="96"
   height="96"
   viewBox="0 0 48 48"
   version="1.1"
   id="svg1"
   sodipodi:docname="headshot_v2_hair1.svg"
   inkscape:version="1.4.4 (dcaf3e7, 2026-05-05)"
   xmlns:inkscape="http://www.inkscape.org/namespaces/inkscape"
   xmlns:sodipodi="http://sodipodi.sourceforge.net/DTD/sodipodi-0.dtd"
   xmlns="http://www.w3.org/2000/svg"
   xmlns:svg="http://www.w3.org/2000/svg">
  <defs
     id="defs1" />
  <sodipodi:namedview
     id="namedview1"
     pagecolor="#ffffff"
     bordercolor="#000000"
     borderopacity="0.25"
     inkscape:showpageshadow="2"
     inkscape:pageopacity="0.0"
     inkscape:pagecheckerboard="0"
     inkscape:deskcolor="#d1d1d1"
     inkscape:zoom="5.6568543"
     inkscape:cx="7.7781746"
     inkscape:cy="24.660349"
     inkscape:window-width="1920"
     inkscape:window-height="1009"
     inkscape:window-x="-8"
     inkscape:window-y="-8"
     inkscape:window-maximized="1"
     inkscape:current-layer="svg1"
     showguides="false" />
  <g
     fill="#FFFFFF"
     id="g1"
     style="fill:#000000;fill-opacity:1">
    <circle
       cx="24"
       cy="18"
       r="13.758365"
       id="circle1"
       style="display:inline;fill:#c0af7e;fill-opacity:1;stroke:#000000;stroke-width:1.7785;stroke-dasharray:none;stroke-opacity:1" />
    <path
       d="M8 44 C8 28 40 28 40 44 Z"
       id="path1"
       style="fill:#000000;fill-opacity:1" />
  </g>
  <path
     style="fill:#000000;fill-opacity:1;stroke:#000000;stroke-width:1.7785;stroke-linecap:round;stroke-linejoin:round;stroke-miterlimit:5.4;stroke-dasharray:none;stroke-opacity:1"
     d="m 11.5,12.5 c 0,0 7.846448,-2.5369685 7.375,-2.25 l -4.3125,2.625 c 0,0 6.910675,-3.9410352 9.5,-2 0.434691,0.325857 0.125,1.625 0.125,1.625 0,0 5.692981,-3.2171535 8.0625,-1.8125 1.07205,0.635513 1.03125,3.59375 1.03125,3.59375 l 2.4375,3.34375 0.46875,1.4375 1.4375,1 c -0.457364,-1.045171 0.631226,-2.3324 -0.1875,-5.875 -0.627138,-2.713603 -5.25,-6.5 -5.25,-6.5 -1.465494,-1.8804268 -3.48055,-2.9324563 -4.75,-3 -0.828314,-0.044072 -6.175593,-0.150362 -8.375,0.5 -1.754588,0.5188296 -2.506438,1.1191555 -4.46875,3.1875 -1.962312,2.068345 -3.21875,4 -3.09375,4.125 z"
     id="path2"
     sodipodi:nodetypes="cscacaccccscsszc" />
</svg>
