<svg xmlns="http://www.w3.org/2000/svg" width="81" height="81" viewBox="0 0 48 48"><g fill="#1D2D50"><rect x="21" y="3" width="6" height="9" rx="1"/><rect x="21" y="3" width="6" height="9" rx="1" transform="rotate(45 24 24)"/><rect x="21" y="3" width="6" height="9" rx="1" transform="rotate(90 24 24)"/><rect x="21" y="3" width="6" height="9" rx="1" transform="rotate(135 24 24)"/><rect x="21" y="3" width="6" height="9" rx="1" transform="rotate(180 24 24)"/><rect x="21" y="3" width="6" height="9" rx="1" transform="rotate(225 24 24)"/><rect x="21" y="3" width="6" height="9" rx="1" transform="rotate(270 24 24)"/><rect x="21" y="3" width="6" height="9" rx="1" transform="rotate(315 24 24)"/></g><path fill="#1D2D50" fill-rule="evenodd" d="M11 24 a13 13 0 1 0 26 0 a13 13 0 1 0 -26 0 Z M18.5 24 a5.5 5.5 0 1 0 11 0 a5.5 5.5 0 1 0 -11 0 Z"/></svg>
